<?xml version="1.0" standalone="no"?>
<!DOCTYPE svg PUBLIC "-//W3C//DTD SVG 20010904//EN"
 "http://www.w3.org/TR/2001/REC-SVG-20010904/DTD/svg10.dtd">
<svg version="1.0" xmlns="http://www.w3.org/2000/svg"
 width="500.000000pt" height="500.000000pt" viewBox="0 0 500.000000 500.000000"
 preserveAspectRatio="xMidYMid meet">

<g transform="translate(0.000000,500.000000) scale(0.100000,-0.100000)"
fill="#000000" stroke="none">
<path d="M595 3338 c-30 -23 -55 -74 -55 -111 0 -54 85 -171 268 -369 l102
-112 -179 -180 c-151 -152 -180 -187 -186 -218 -4 -21 -4 -49 -1 -62 9 -38 53
-83 93 -97 70 -23 97 -5 294 192 198 197 178 187 244 128 17 -15 57 -46 90
-69 173 -118 241 -160 358 -218 70 -35 127 -67 127 -71 0 -5 -8 -19 -19 -32
-18 -23 -105 -171 -164 -277 -30 -55 -31 -86 -1 -144 28 -55 129 -77 187 -40
27 17 41 38 173 262 94 161 80 150 166 128 184 -47 445 -60 635 -33 98 14 210
37 244 50 12 4 24 -9 47 -52 18 -32 54 -94 81 -138 28 -44 66 -108 86 -143 41
-70 74 -92 135 -92 74 0 117 37 134 115 5 23 0 45 -22 85 -40 78 -141 251
-163 279 -11 13 -19 27 -19 31 0 4 57 37 128 72 161 82 373 220 459 299 23 21
45 39 48 39 3 0 85 -80 183 -178 97 -98 192 -184 209 -191 69 -28 156 18 172
91 18 79 6 98 -184 288 l-176 176 103 111 c57 61 121 134 143 163 22 28 55 70
72 93 62 80 63 166 3 220 -25 22 -40 27 -83 27 -31 0 -62 -6 -74 -15 -12 -8
-57 -61 -101 -118 -44 -56 -110 -133 -146 -172 -36 -38 -66 -73 -66 -76 0 -13
-256 -236 -353 -309 -283 -212 -609 -351 -912 -391 -122 -16 -353 -6 -474 21
-85 18 -186 50 -336 106 -60 23 -202 98 -306 162 -134 83 -291 209 -444 359
-97 94 -237 254 -299 340 -55 77 -79 93 -141 93 -39 0 -60 -6 -80 -22z"/>
</g>
</svg>
