<svg width="32" height="32" viewBox="0 0 8 8" fill="none" xmlns="http://www.w3.org/2000/svg">
<g clip-path="url(#clip0_201_18877)">
<path d="M3.48866 6.51272H2.37797V2.06999H4.32167V3.45834H5.71002V4.31912L6.26536 3.76378V3.18067L4.59934 1.51465H2.37797C2.07254 1.51465 1.82263 1.76455 1.82263 2.06999V6.51272C1.82263 6.81816 2.07254 7.06806 2.37797 7.06806H3.48866V6.51272ZM6.3209 4.56903C6.34866 4.56903 6.4042 4.59679 6.43196 4.62456L6.79294 4.98553C6.84847 5.04107 6.84847 5.15213 6.79294 5.20767L6.51527 5.48534L5.93216 4.90223L6.20983 4.62456C6.2376 4.59679 6.26536 4.56903 6.3209 4.56903ZM6.3209 5.65194L4.62711 7.34573H4.044V6.76262L5.73779 5.06883L6.3209 5.65194Z" fill="#274195"/>
</g>
<defs>
<clipPath id="clip0_201_18877">
<rect width="6.6641" height="6.6641" fill="white" transform="translate(0.711914 0.958984)"/>
</clipPath>
</defs>
</svg>
