<svg width="38" height="38" viewBox="0 0 38 38" fill="none" xmlns="http://www.w3.org/2000/svg">
<path d="M20.8047 20.8047V9.80469H17.1953V20.8047H20.8047ZM20.8047 28.1953V24.5H17.1953V28.1953H20.8047ZM6.02344 6.10938C9.63281 2.5 13.9583 0.695312 19 0.695312C24.0417 0.695312 28.3385 2.5 31.8906 6.10938C35.5 9.66146 37.3047 13.9583 37.3047 19C37.3047 24.0417 35.5 28.3672 31.8906 31.9766C28.3385 35.5286 24.0417 37.3047 19 37.3047C13.9583 37.3047 9.63281 35.5286 6.02344 31.9766C2.47135 28.3672 0.695312 24.0417 0.695312 19C0.695312 13.9583 2.47135 9.66146 6.02344 6.10938Z" fill="#FF0D05"/>
</svg>
