<svg width="45" height="44" viewBox="0 0 45 44" fill="none" xmlns="http://www.w3.org/2000/svg">
<rect x="0.735107" y="6.10352e-05" width="43.9999" height="43.9999" rx="21.9999" fill="white"/>
<path d="M28.1117 10.0001H17.3581C13.7062 10.0001 10.7351 12.9713 10.7351 16.6232V27.3768C10.7351 31.0289 13.7062 33.9999 17.3581 33.9999H28.1117C31.7639 33.9999 34.735 31.0287 34.735 27.3768V16.6232C34.7351 12.9713 31.7639 10.0001 28.1117 10.0001ZM32.6057 27.3768C32.6057 29.8547 30.5898 31.8705 28.1119 31.8705H17.3581C14.8803 31.8707 12.8645 29.8547 12.8645 27.3768V16.6232C12.8645 14.1454 14.8803 12.1294 17.3581 12.1294H28.1117C30.5896 12.1294 32.6056 14.1454 32.6056 16.6232V27.3768H32.6057Z" fill="#1B2C65"/>
<path d="M22.7349 15.8161C19.3249 15.8161 16.5508 18.5903 16.5508 22.0003C16.5508 25.4101 19.3249 28.1842 22.7349 28.1842C26.1449 28.1842 28.9191 25.4101 28.9191 22.0003C28.9191 18.5903 26.1449 15.8161 22.7349 15.8161ZM22.7349 26.0546C20.4992 26.0546 18.6802 24.2359 18.6802 22.0001C18.6802 19.7643 20.4991 17.9454 22.7349 17.9454C24.9708 17.9454 26.7897 19.7643 26.7897 22.0001C26.7897 24.2359 24.9706 26.0546 22.7349 26.0546Z" fill="#1B2C65"/>
<path d="M29.1785 14.0105C28.7682 14.0105 28.3652 14.1766 28.0755 14.4676C27.7843 14.7572 27.6169 15.1604 27.6169 15.5721C27.6169 15.9825 27.7845 16.3855 28.0755 16.6765C28.3651 16.9661 28.7682 17.1336 29.1785 17.1336C29.5902 17.1336 29.9919 16.9661 30.2829 16.6765C30.5739 16.3855 30.74 15.9823 30.74 15.5721C30.74 15.1604 30.5739 14.7572 30.2829 14.4676C29.9933 14.1766 29.5902 14.0105 29.1785 14.0105Z" fill="#1B2C65"/>
</svg>
