<svg width="13" height="7" viewBox="0 0 13 7" fill="none" xmlns="http://www.w3.org/2000/svg">
<path d="M9.42578 0.574219C10.2279 0.574219 10.9115 0.865885 11.4766 1.44922C12.0417 2.01432 12.3242 2.69792 12.3242 3.5C12.3242 4.30208 12.0417 4.99479 11.4766 5.57812C10.9115 6.14323 10.2279 6.42578 9.42578 6.42578H7.07422V5.30469H9.42578C9.91797 5.30469 10.3372 5.13151 10.6836 4.78516C11.0482 4.42057 11.2305 3.99219 11.2305 3.5C11.2305 3.00781 11.0482 2.58854 10.6836 2.24219C10.3372 1.8776 9.91797 1.69531 9.42578 1.69531H7.07422V0.574219H9.42578ZM4.17578 4.07422V2.92578H8.82422V4.07422H4.17578ZM2.28906 2.24219C1.94271 2.58854 1.76953 3.00781 1.76953 3.5C1.76953 3.99219 1.94271 4.42057 2.28906 4.78516C2.65365 5.13151 3.08203 5.30469 3.57422 5.30469H5.92578V6.42578H3.57422C2.77214 6.42578 2.08854 6.14323 1.52344 5.57812C0.958333 4.99479 0.675781 4.30208 0.675781 3.5C0.675781 2.69792 0.958333 2.01432 1.52344 1.44922C2.08854 0.865885 2.77214 0.574219 3.57422 0.574219H5.92578V1.69531H3.57422C3.08203 1.69531 2.65365 1.8776 2.28906 2.24219Z" fill="#0F0F0F"/>
</svg>
