<?xml version="1.0" standalone="no"?>
<!DOCTYPE svg PUBLIC "-//W3C//DTD SVG 20010904//EN"
 "http://www.w3.org/TR/2001/REC-SVG-20010904/DTD/svg10.dtd">
<svg version="1.0" xmlns="http://www.w3.org/2000/svg"
 width="500.000000pt" height="500.000000pt" viewBox="0 0 500.000000 500.000000"
 preserveAspectRatio="xMidYMid meet">

<g transform="translate(0.000000,500.000000) scale(0.100000,-0.100000)"
fill="#000000" stroke="none">
<path d="M2340 3900 c-292 -37 -574 -160 -900 -391 -278 -197 -734 -691 -898
-972 l-22 -39 56 -86 c204 -312 597 -731 864 -921 292 -207 511 -310 794 -373
145 -32 387 -32 532 0 289 64 487 157 794 373 261 184 662 611 864 921 l56 86
-22 39 c-164 281 -620 775 -898 972 -380 270 -680 386 -1020 396 -74 2 -164 0
-200 -5z m346 -275 c283 -50 558 -194 870 -456 163 -137 464 -467 582 -636
l23 -33 -23 -33 c-71 -100 -250 -310 -368 -431 -342 -350 -653 -552 -995 -643
-89 -23 -119 -27 -270 -27 -155 -1 -179 1 -277 27 -262 68 -486 191 -758 416
-172 141 -473 468 -608 659 l-23 32 23 33 c101 142 288 355 450 513 341 330
667 518 1003 579 98 18 266 18 371 0z"/>
<path d="M2352 3165 c-82 -18 -211 -82 -285 -140 -71 -56 -139 -146 -184 -243
-86 -185 -84 -391 6 -576 75 -152 175 -250 329 -323 443 -208 962 125 962 617
0 197 -99 408 -248 525 -75 60 -202 122 -288 140 -85 18 -208 18 -292 0z m291
-274 c58 -18 156 -99 202 -167 51 -74 70 -153 62 -256 -8 -102 -21 -139 -75
-210 -93 -122 -213 -177 -364 -165 -102 8 -139 21 -210 75 -80 61 -140 148
-158 230 -17 80 -9 205 17 263 46 103 160 206 259 234 56 16 208 14 267 -4z"/>
</g>
</svg>
