<svg width="8" height="8" viewBox="0 0 8 8" fill="none" xmlns="http://www.w3.org/2000/svg">
<g clip-path="url(#clip0_201_18865)">
<path d="M4.87274 0.958984H2.65138C2.34594 0.958984 2.09603 1.20889 2.09603 1.51433V5.95706C2.09603 6.26249 2.34594 6.5124 2.65138 6.5124H5.98342C6.28886 6.5124 6.53876 6.26249 6.53876 5.95706V2.62501L4.87274 0.958984ZM5.98342 5.95706H2.65138V1.51433H4.59507V2.90268H5.98342V5.95706ZM1.54069 2.06967V7.06774H5.98342V7.62308H1.54069C1.23526 7.62308 0.985352 7.37318 0.985352 7.06774V2.06967H1.54069ZM3.20672 3.73569V4.29103H5.42808V3.73569H3.20672ZM3.20672 4.84637V5.40171H4.59507V4.84637H3.20672Z" fill="#274195"/>
</g>
<defs>
<clipPath id="clip0_201_18865">
<rect width="6.6641" height="6.6641" fill="white" transform="translate(0.430054 0.958984)"/>
</clipPath>
</defs>
</svg>
