<svg width="48" height="47" viewBox="0 0 48 47" fill="none" xmlns="http://www.w3.org/2000/svg">
<g clip-path="url(#clip0_5906_1480)">
<path d="M19.5267 0H19.533V0.00274627C24.9233 0.00431556 29.8041 2.20015 33.3362 5.74833C36.8624 9.2914 39.0468 14.1892 39.0503 19.5985H39.0531V19.6115V19.6272H39.0503C39.0484 21.8073 38.6921 23.9055 38.037 25.862C37.9273 26.1904 37.8124 26.5058 37.6944 26.8071V26.8098C37.1296 28.2457 36.3995 29.6032 35.5276 30.8535L46.8879 41.1085L46.8949 41.1147L46.9562 41.172L46.9605 41.1763C47.602 41.7895 47.9512 42.6107 47.9953 43.444C48.0383 44.2679 47.7832 45.1106 47.2223 45.7865L47.218 45.7928L47.1496 45.8725L47.1359 45.8862L47.0789 45.949L47.0726 45.9572C46.4613 46.6014 45.6453 46.9514 44.8148 46.9953C43.9957 47.0388 43.1558 46.7834 42.4824 46.2193L42.4765 46.215L42.3968 46.1463L42.3855 46.1369L30.7663 35.6485C30.4225 35.8917 30.0717 36.1228 29.7166 36.341C29.235 36.6372 28.7362 36.9161 28.2272 37.1707C25.6104 38.4819 22.6533 39.2194 19.5271 39.2194V39.2222H19.5209V39.2194C14.1306 39.2179 9.2489 37.022 5.71684 33.4739C2.18947 29.9308 0.00625005 25.0322 0.0027344 19.6244H0V19.6115V19.6052H0.0027344C0.00429691 14.1915 2.19064 9.28866 5.72348 5.74127C9.25125 2.20015 14.1279 0.00627718 19.5138 0.00274627V0H19.5267ZM19.533 4.39795V4.4007H19.5267H19.5138V4.39795C15.3396 4.4007 11.556 6.10456 8.81687 8.85436C6.07817 11.6042 4.38011 15.4081 4.37894 19.6056H4.38168V19.6119V19.6248H4.37894C4.38168 23.8172 6.077 27.6153 8.81609 30.367C11.554 33.118 15.3415 34.8234 19.5205 34.8242V34.8215H19.5267H19.5396V34.8242C23.7139 34.8215 27.4959 33.1184 30.2358 30.3678C32.9745 27.618 34.6725 23.8152 34.6733 19.6182H34.671V19.6119V19.5989H34.6733C34.671 15.4066 32.9741 11.6065 30.2366 8.85553C27.4987 6.10456 23.7123 4.39913 19.533 4.39795Z" fill="#ECECEC"/>
<path d="M19.5267 0H19.533V0.00274627C24.9233 0.00431556 29.8041 2.20015 33.3362 5.74833C36.8624 9.2914 39.0468 14.1892 39.0503 19.5985H39.0531V19.6115V19.6272H39.0503C39.0484 21.8073 38.6921 23.9055 38.037 25.862C37.9273 26.1904 37.8124 26.5058 37.6944 26.8071V26.8098C37.1296 28.2457 36.3995 29.6032 35.5276 30.8535L46.8879 41.1085L46.8949 41.1147L46.9562 41.172L46.9605 41.1763C47.602 41.7895 47.9512 42.6107 47.9953 43.444C48.0383 44.2679 47.7832 45.1106 47.2223 45.7865L47.218 45.7928L47.1496 45.8725L47.1359 45.8862L47.0789 45.949L47.0726 45.9572C46.4613 46.6014 45.6453 46.9514 44.8148 46.9953C43.9957 47.0388 43.1558 46.7834 42.4824 46.2193L42.4765 46.215L42.3968 46.1463L42.3855 46.1369L30.7663 35.6485C30.4225 35.8917 30.0717 36.1228 29.7166 36.341C29.235 36.6372 28.7362 36.9161 28.2272 37.1707C25.6104 38.4819 22.6533 39.2194 19.5271 39.2194V39.2222H19.5209V39.2194C14.1306 39.2179 9.2489 37.022 5.71684 33.4739C2.18947 29.9308 0.00625005 25.0322 0.0027344 19.6244H0V19.6115V19.6052H0.0027344C0.00429691 14.1915 2.19064 9.28866 5.72348 5.74127C9.25125 2.20015 14.1279 0.00627718 19.5138 0.00274627V0H19.5267ZM19.533 4.39795V4.4007H19.5267H19.5138V4.39795C15.3396 4.4007 11.556 6.10456 8.81687 8.85436C6.07817 11.6042 4.38011 15.4081 4.37894 19.6056H4.38168V19.6119V19.6248H4.37894C4.38168 23.8172 6.077 27.6153 8.81609 30.367C11.554 33.118 15.3415 34.8234 19.5205 34.8242V34.8215H19.5267H19.5396V34.8242C23.7139 34.8215 27.4959 33.1184 30.2358 30.3678C32.9745 27.618 34.6725 23.8152 34.6733 19.6182H34.671V19.6119V19.5989H34.6733C34.671 15.4066 32.9741 11.6065 30.2366 8.85553C27.4987 6.10456 23.7123 4.39913 19.533 4.39795Z" fill="black" fill-opacity="0.2"/>
<path d="M19.5267 0H19.533V0.00274627C24.9233 0.00431556 29.8041 2.20015 33.3362 5.74833C36.8624 9.2914 39.0468 14.1892 39.0503 19.5985H39.0531V19.6115V19.6272H39.0503C39.0484 21.8073 38.6921 23.9055 38.037 25.862C37.9273 26.1904 37.8124 26.5058 37.6944 26.8071V26.8098C37.1296 28.2457 36.3995 29.6032 35.5276 30.8535L46.8879 41.1085L46.8949 41.1147L46.9562 41.172L46.9605 41.1763C47.602 41.7895 47.9512 42.6107 47.9953 43.444C48.0383 44.2679 47.7832 45.1106 47.2223 45.7865L47.218 45.7928L47.1496 45.8725L47.1359 45.8862L47.0789 45.949L47.0726 45.9572C46.4613 46.6014 45.6453 46.9514 44.8148 46.9953C43.9957 47.0388 43.1558 46.7834 42.4824 46.2193L42.4765 46.215L42.3968 46.1463L42.3855 46.1369L30.7663 35.6485C30.4225 35.8917 30.0717 36.1228 29.7166 36.341C29.235 36.6372 28.7362 36.9161 28.2272 37.1707C25.6104 38.4819 22.6533 39.2194 19.5271 39.2194V39.2222H19.5209V39.2194C14.1306 39.2179 9.2489 37.022 5.71684 33.4739C2.18947 29.9308 0.00625005 25.0322 0.0027344 19.6244H0V19.6115V19.6052H0.0027344C0.00429691 14.1915 2.19064 9.28866 5.72348 5.74127C9.25125 2.20015 14.1279 0.00627718 19.5138 0.00274627V0H19.5267ZM19.533 4.39795V4.4007H19.5267H19.5138V4.39795C15.3396 4.4007 11.556 6.10456 8.81687 8.85436C6.07817 11.6042 4.38011 15.4081 4.37894 19.6056H4.38168V19.6119V19.6248H4.37894C4.38168 23.8172 6.077 27.6153 8.81609 30.367C11.554 33.118 15.3415 34.8234 19.5205 34.8242V34.8215H19.5267H19.5396V34.8242C23.7139 34.8215 27.4959 33.1184 30.2358 30.3678C32.9745 27.618 34.6725 23.8152 34.6733 19.6182H34.671V19.6119V19.5989H34.6733C34.671 15.4066 32.9741 11.6065 30.2366 8.85553C27.4987 6.10456 23.7123 4.39913 19.533 4.39795Z" fill="black" fill-opacity="0.2"/>
<path d="M19.5267 0H19.533V0.00274627C24.9233 0.00431556 29.8041 2.20015 33.3362 5.74833C36.8624 9.2914 39.0468 14.1892 39.0503 19.5985H39.0531V19.6115V19.6272H39.0503C39.0484 21.8073 38.6921 23.9055 38.037 25.862C37.9273 26.1904 37.8124 26.5058 37.6944 26.8071V26.8098C37.1296 28.2457 36.3995 29.6032 35.5276 30.8535L46.8879 41.1085L46.8949 41.1147L46.9562 41.172L46.9605 41.1763C47.602 41.7895 47.9512 42.6107 47.9953 43.444C48.0383 44.2679 47.7832 45.1106 47.2223 45.7865L47.218 45.7928L47.1496 45.8725L47.1359 45.8862L47.0789 45.949L47.0726 45.9572C46.4613 46.6014 45.6453 46.9514 44.8148 46.9953C43.9957 47.0388 43.1558 46.7834 42.4824 46.2193L42.4765 46.215L42.3968 46.1463L42.3855 46.1369L30.7663 35.6485C30.4225 35.8917 30.0717 36.1228 29.7166 36.341C29.235 36.6372 28.7362 36.9161 28.2272 37.1707C25.6104 38.4819 22.6533 39.2194 19.5271 39.2194V39.2222H19.5209V39.2194C14.1306 39.2179 9.2489 37.022 5.71684 33.4739C2.18947 29.9308 0.00625005 25.0322 0.0027344 19.6244H0V19.6115V19.6052H0.0027344C0.00429691 14.1915 2.19064 9.28866 5.72348 5.74127C9.25125 2.20015 14.1279 0.00627718 19.5138 0.00274627V0H19.5267ZM19.533 4.39795V4.4007H19.5267H19.5138V4.39795C15.3396 4.4007 11.556 6.10456 8.81687 8.85436C6.07817 11.6042 4.38011 15.4081 4.37894 19.6056H4.38168V19.6119V19.6248H4.37894C4.38168 23.8172 6.077 27.6153 8.81609 30.367C11.554 33.118 15.3415 34.8234 19.5205 34.8242V34.8215H19.5267H19.5396V34.8242C23.7139 34.8215 27.4959 33.1184 30.2358 30.3678C32.9745 27.618 34.6725 23.8152 34.6733 19.6182H34.671V19.6119V19.5989H34.6733C34.671 15.4066 32.9741 11.6065 30.2366 8.85553C27.4987 6.10456 23.7123 4.39913 19.533 4.39795Z" fill="black" fill-opacity="0.2"/>
</g>
<defs>
<clipPath id="clip0_5906_1480">
<rect width="48" height="47" fill="white"/>
</clipPath>
</defs>
</svg>
