<svg width="12px" height="12px" viewBox="0 0 129 133" fill="none" xmlns="http://www.w3.org/2000/svg">
<path d="M84.9358 46.875L82.3553 105.75M46.6447 105.75L44.0642 46.875M118.409 25.8762C120.96 26.2164 123.495 26.5762 126.031 26.9622M118.409 25.8762L110.443 116.694C110.118 120.392 108.214 123.845 105.111 126.364C102.008 128.883 97.935 130.282 93.7068 130.281H35.2932C31.065 130.282 26.9922 128.883 23.8892 126.364C20.7862 123.845 18.8818 120.392 18.5567 116.694L10.5912 25.8762M118.409 25.8762C109.801 24.7348 101.149 23.8686 92.4688 23.2792M10.5912 25.8762C8.04042 26.2099 5.50458 26.5697 2.96875 26.9556M10.5912 25.8762C19.1991 24.7348 27.8515 23.8686 36.5312 23.2792M92.4688 23.2792V17.287C92.4688 9.56788 85.6817 3.13087 76.8808 2.88883C68.6291 2.65751 60.3709 2.65751 52.1192 2.88883C43.3183 3.13087 36.5312 9.57442 36.5312 17.287V23.2792M92.4688 23.2792C73.8507 22.0172 55.1493 22.0172 36.5312 23.2792" stroke="white" stroke-width="12" stroke-linecap="round" stroke-linejoin="round"/>
</svg>
